{
  "source": "C:\\Users\\Peter\\Desktop\\stuff\\MIUN\\quantitative_research\\video_compression\\videos\\HEVC_CLASS_B\\Cactus_1920x1080_50.y4m",
  "output": "C:\\Users\\Peter\\Desktop\\stuff\\MIUN\\quantitative_research\\video_compression\\compressed_videos\\HEVC_CLASS_B\\vp9\\2.5\\Cactus_1920x1080_50_vp9.webm",
  "codec": "vp9",
  "ok": "Input #0, yuv4mpegpipe, from 'C:\\Users\\Peter\\Desktop\\stuff\\MIUN\\quantitative_research\\video_compression\\videos\\HEVC_CLASS_B\\Cactus_1920x1080_50.y4m':\n  Duration: 00:00:10.00, start: 0.000000, bitrate: 1244162 kb/s\n  Stream #0:0: Video: rawvideo (I420 / 0x30323449), yuv420p(progressive), 1920x1080, 50 fps, 50 tbr, 50 tbn\n[out#0/webm @ 0000015cf5d09b00] Codec AVOption b:a (set bitrate (in bits/s)) has not been used for any stream. The most likely reason is either wrong type (e.g. a video option with no video streams) or that it is a private option of some decoder which was not actually used for any stream.\nStream mapping:\n  Stream #0:0 -> #0:0 (rawvideo (native) -> vp9 (libvpx-vp9))\nPress [q] to stop, [?] for help\n[libvpx-vp9 @ 0000015cf5d0bf40] v1.15.2-100-g40561f514\nOutput #0, webm, to 'C:\\Users\\Peter\\Desktop\\stuff\\MIUN\\quantitative_research\\video_compression\\compressed_videos\\HEVC_CLASS_B\\vp9\\2.5\\Cactus_1920x1080_50_vp9.webm':\n  Metadata:\n    encoder         : Lavf62.3.100\n  Stream #0:0: Video: vp9, yuv420p(tv, progressive), 1920x1080, q=2-31, 2500 kb/s, 50 fps, 1k tbn\n    Metadata:\n      encoder         : Lavc62.11.100 libvpx-vp9\n    Side data:\n      cpb: bitrate max/min/avg: 0/0/0 buffer size: 2500000 vbv_delay: N/A\nframe=    0 fps=0.0 q=0.0 size=       0KiB time=N/A bitrate=N/A speed=N/A elapsed=0:00:00.52    \nframe=    8 fps=7.6 q=52.0 size=       0KiB time=00:00:00.16 bitrate=  24.1kbits/s speed=0.153x elapsed=0:00:01.04    \nframe=   14 fps=8.8 q=49.0 size=       0KiB time=00:00:00.26 bitrate=  14.8kbits/s speed=0.164x elapsed=0:00:01.58    \nframe=   19 fps=8.9 q=51.0 size=       0KiB time=00:00:00.38 bitrate=  10.1kbits/s speed=0.179x elapsed=0:00:02.12    \nframe=   23 fps=8.7 q=38.0 size=       0KiB time=00:00:00.46 bitrate=   8.4kbits/s speed=0.173x elapsed=0:00:02.65    \nframe=   29 fps=9.1 q=52.0 size=       0KiB time=00:00:00.58 bitrate=   6.6kbits/s speed=0.183x elapsed=0:00:03.17    \nframe=   33 fps=8.8 q=52.0 size=       0KiB time=00:00:00.66 bitrate=   5.8kbits/s speed=0.177x elapsed=0:00:03.73    \nframe=   39 fps=9.2 q=52.0 size=       0KiB time=00:00:00.78 bitrate=   4.9kbits/s speed=0.183x elapsed=0:00:04.25    \nframe=   44 fps=9.2 q=53.0 size=       0KiB time=00:00:00.88 bitrate=   4.4kbits/s speed=0.183x elapsed=0:00:04.79    \nframe=   50 fps=9.4 q=53.0 size=       0KiB time=00:00:01.00 bitrate=   3.9kbits/s speed=0.188x elapsed=0:00:05.31    \nframe=   55 fps=9.4 q=54.0 size=       0KiB time=00:00:01.10 bitrate=   3.5kbits/s speed=0.188x elapsed=0:00:05.85    \nframe=   61 fps=9.6 q=52.0 size=       0KiB time=00:00:01.22 bitrate=   3.2kbits/s speed=0.191x elapsed=0:00:06.38    \nframe=   66 fps=9.5 q=51.0 size=       0KiB time=00:00:01.32 bitrate=   2.9kbits/s speed=0.19x elapsed=0:00:06.93    \nframe=   71 fps=9.5 q=52.0 size=       0KiB time=00:00:01.42 bitrate=   2.7kbits/s speed=0.19x elapsed=0:00:07.48    \nframe=   76 fps=9.5 q=54.0 size=       0KiB time=00:00:01.52 bitrate=   2.5kbits/s speed=0.19x elapsed=0:00:08.02    \nframe=   81 fps=9.5 q=52.0 size=       0KiB time=00:00:01.62 bitrate=   2.4kbits/s speed=0.19x elapsed=0:00:08.53    \nframe=   87 fps=9.6 q=52.0 size=       0KiB time=00:00:01.74 bitrate=   2.2kbits/s speed=0.192x elapsed=0:00:09.05    \nframe=   91 fps=9.5 q=51.0 size=       0KiB time=00:00:01.82 bitrate=   2.1kbits/s speed=0.19x elapsed=0:00:09.57    \nframe=   96 fps=9.5 q=52.0 size=       0KiB time=00:00:01.92 bitrate=   2.0kbits/s speed=0.19x elapsed=0:00:10.11    \nframe=  100 fps=9.4 q=34.0 size=       0KiB time=00:00:02.00 bitrate=   1.9kbits/s speed=0.188x elapsed=0:00:10.63    \nframe=  105 fps=9.4 q=53.0 size=       0KiB time=00:00:02.10 bitrate=   1.8kbits/s speed=0.188x elapsed=0:00:11.14    \nframe=  110 fps=9.4 q=53.0 size=       0KiB time=00:00:02.20 bitrate=   1.8kbits/s speed=0.188x elapsed=0:00:11.67    \nframe=  113 fps=9.3 q=52.0 size=       0KiB time=00:00:02.26 bitrate=   1.7kbits/s speed=0.185x elapsed=0:00:12.20    \nframe=  117 fps=9.2 q=52.0 size=       0KiB time=00:00:02.32 bitrate=   1.7kbits/s speed=0.182x elapsed=0:00:12.76    \nframe=  119 fps=8.9 q=51.0 size=       0KiB time=00:00:02.38 bitrate=   1.6kbits/s speed=0.178x elapsed=0:00:13.37    \nframe=  123 fps=8.8 q=51.0 size=       0KiB time=00:00:02.46 bitrate=   1.6kbits/s speed=0.176x elapsed=0:00:13.97    \nframe=  127 fps=8.7 q=51.0 size=       0KiB time=00:00:02.54 bitrate=   1.5kbits/s speed=0.175x elapsed=0:00:14.52    \nframe=  128 fps=8.5 q=52.0 size=       0KiB time=00:00:02.56 bitrate=   1.5kbits/s speed=0.169x elapsed=0:00:15.12    \nframe=  132 fps=8.4 q=51.0 size=     768KiB time=00:00:02.64 bitrate=2383.1kbits/s speed=0.168x elapsed=0:00:15.72    \nframe=  136 fps=8.3 q=53.0 size=     768KiB time=00:00:02.72 bitrate=2313.0kbits/s speed=0.167x elapsed=0:00:16.32    \nframe=  139 fps=8.2 q=53.0 size=     768KiB time=00:00:02.78 bitrate=2263.1kbits/s speed=0.165x elapsed=0:00:16.86    \nframe=  143 fps=8.2 q=52.0 size=     768KiB time=00:00:02.86 bitrate=2199.8kbits/s speed=0.163x elapsed=0:00:17.50    \nframe=  147 fps=8.1 q=52.0 size=     768KiB time=00:00:02.94 bitrate=2140.0kbits/s speed=0.163x elapsed=0:00:18.05    \nframe=  150 fps=8.1 q=52.0 size=     768KiB time=00:00:03.00 bitrate=2097.2kbits/s speed=0.161x elapsed=0:00:18.61    \nframe=  153 fps=8.0 q=51.0 size=     768KiB time=00:00:03.06 bitrate=2056.0kbits/s speed=0.159x elapsed=0:00:19.19    \nframe=  157 fps=8.0 q=52.0 size=     768KiB time=00:00:03.14 bitrate=2003.6kbits/s speed=0.159x elapsed=0:00:19.74    \nframe=  161 fps=7.9 q=52.0 size=     768KiB time=00:00:03.22 bitrate=1953.9kbits/s speed=0.158x elapsed=0:00:20.32    \nframe=  163 fps=7.8 q=52.0 size=     768KiB time=00:00:03.26 bitrate=1929.9kbits/s speed=0.156x elapsed=0:00:20.92    \nframe=  167 fps=7.8 q=52.0 size=     768KiB time=00:00:03.34 bitrate=1883.7kbits/s speed=0.155x elapsed=0:00:21.50    \nframe=  171 fps=7.7 q=52.0 size=     768KiB time=00:00:03.40 bitrate=1850.4kbits/s speed=0.154x elapsed=0:00:22.06    \nframe=  172 fps=7.6 q=51.0 size=     768KiB time=00:00:03.44 bitrate=1828.9kbits/s speed=0.152x elapsed=0:00:22.66    \nframe=  177 fps=7.6 q=49.0 size=     768KiB time=00:00:03.54 bitrate=1777.2kbits/s speed=0.152x elapsed=0:00:23.23    \nframe=  182 fps=7.6 q=51.0 size=     768KiB time=00:00:03.62 bitrate=1738.0kbits/s speed=0.152x elapsed=0:00:23.82    \nframe=  186 fps=7.6 q=50.0 size=     768KiB time=00:00:03.72 bitrate=1691.3kbits/s speed=0.153x elapsed=0:00:24.37    \nframe=  192 fps=7.7 q=51.0 size=     768KiB time=00:00:03.84 bitrate=1638.4kbits/s speed=0.154x elapsed=0:00:24.89    \nframe=  197 fps=7.7 q=50.0 size=     768KiB time=00:00:03.94 bitrate=1596.8kbits/s speed=0.155x elapsed=0:00:25.43    \nframe=  203 fps=7.8 q=51.0 size=     768KiB time=00:00:04.06 bitrate=1549.6kbits/s speed=0.156x elapsed=0:00:25.97    \nframe=  207 fps=7.8 q=52.0 size=     768KiB time=00:00:04.14 bitrate=1519.7kbits/s speed=0.156x elapsed=0:00:26.51    \nframe=  212 fps=7.8 q=52.0 size=     768KiB time=00:00:04.24 bitrate=1483.8kbits/s speed=0.157x elapsed=0:00:27.03    \nframe=  216 fps=7.8 q=52.0 size=     768KiB time=00:00:04.32 bitrate=1456.4kbits/s speed=0.157x elapsed=0:00:27.55    \nframe=  222 fps=7.9 q=51.0 size=     768KiB time=00:00:04.44 bitrate=1417.0kbits/s speed=0.158x elapsed=0:00:28.06    \nframe=  227 fps=7.9 q=51.0 size=     768KiB time=00:00:04.54 bitrate=1385.8kbits/s speed=0.159x elapsed=0:00:28.58    \nframe=  232 fps=8.0 q=49.0 size=     768KiB time=00:00:04.64 bitrate=1355.9kbits/s speed=0.159x elapsed=0:00:29.12    \nframe=  237 fps=8.0 q=51.0 size=     768KiB time=00:00:04.74 bitrate=1327.3kbits/s speed=0.16x elapsed=0:00:29.66    \nframe=  242 fps=8.0 q=53.0 size=     768KiB time=00:00:04.84 bitrate=1299.9kbits/s speed=0.16x elapsed=0:00:30.21    \nframe=  247 fps=8.0 q=55.0 size=     768KiB time=00:00:04.94 bitrate=1273.6kbits/s speed=0.161x elapsed=0:00:30.73    \nframe=  251 fps=8.0 q=53.0 size=     768KiB time=00:00:05.02 bitrate=1253.3kbits/s speed=0.161x elapsed=0:00:31.26    \nframe=  256 fps=8.1 q=54.0 size=     768KiB time=00:00:05.12 bitrate=1228.8kbits/s speed=0.161x elapsed=0:00:31.78    \nframe=  261 fps=8.1 q=52.0 size=    1536KiB time=00:00:05.22 bitrate=2410.5kbits/s speed=0.161x elapsed=0:00:32.34    \nframe=  267 fps=8.1 q=52.0 size=    1536KiB time=00:00:05.34 bitrate=2356.4kbits/s speed=0.162x elapsed=0:00:32.87    \nframe=  273 fps=8.2 q=52.0 size=    1536KiB time=00:00:05.46 bitrate=2304.6kbits/s speed=0.163x elapsed=0:00:33.45    \nframe=  278 fps=8.2 q=52.0 size=    1536KiB time=00:00:05.56 bitrate=2263.1kbits/s speed=0.164x elapsed=0:00:33.99    \nframe=  283 fps=8.2 q=49.0 size=    1536KiB time=00:00:05.66 bitrate=2223.1kbits/s speed=0.164x elapsed=0:00:34.54    \nframe=  289 fps=8.2 q=49.0 size=    1536KiB time=00:00:05.78 bitrate=2177.0kbits/s speed=0.165x elapsed=0:00:35.10    \nframe=  294 fps=8.2 q=50.0 size=    1536KiB time=00:00:05.88 bitrate=2140.0kbits/s speed=0.165x elapsed=0:00:35.69    \nframe=  299 fps=8.3 q=51.0 size=    1536KiB time=00:00:05.98 bitrate=2104.2kbits/s speed=0.165x elapsed=0:00:36.24    \nframe=  304 fps=8.3 q=50.0 size=    1536KiB time=00:00:06.08 bitrate=2069.6kbits/s speed=0.165x elapsed=0:00:36.77    \nframe=  310 fps=8.3 q=50.0 size=    1536KiB time=00:00:06.20 bitrate=2029.5kbits/s speed=0.166x elapsed=0:00:37.32    \nframe=  314 fps=8.3 q=50.0 size=    1536KiB time=00:00:06.28 bitrate=2003.6kbits/s speed=0.166x elapsed=0:00:37.84    \nframe=  319 fps=8.3 q=52.0 size=    1536KiB time=00:00:06.38 bitrate=1972.2kbits/s speed=0.166x elapsed=0:00:38.36    \nframe=  323 fps=8.3 q=33.0 size=    1536KiB time=00:00:06.46 bitrate=1947.8kbits/s speed=0.166x elapsed=0:00:38.88    \nframe=  328 fps=8.3 q=53.0 size=    1536KiB time=00:00:06.56 bitrate=1918.1kbits/s speed=0.166x elapsed=0:00:39.41    \nframe=  333 fps=8.3 q=53.0 size=    1536KiB time=00:00:06.66 bitrate=1889.3kbits/s speed=0.167x elapsed=0:00:39.94    \nframe=  338 fps=8.4 q=51.0 size=    1536KiB time=00:00:06.76 bitrate=1861.4kbits/s speed=0.167x elapsed=0:00:40.47    \nframe=  344 fps=8.4 q=51.0 size=    1536KiB time=00:00:06.88 bitrate=1828.9kbits/s speed=0.168x elapsed=0:00:41.01    \nframe=  348 fps=8.4 q=52.0 size=    1536KiB time=00:00:06.96 bitrate=1807.9kbits/s speed=0.167x elapsed=0:00:41.55    \nframe=  353 fps=8.4 q=54.0 size=    1536KiB time=00:00:07.06 bitrate=1782.3kbits/s speed=0.168x elapsed=0:00:42.07    \nframe=  358 fps=8.4 q=52.0 size=    1536KiB time=00:00:07.16 bitrate=1757.4kbits/s speed=0.168x elapsed=0:00:42.60    \nframe=  363 fps=8.4 q=53.0 size=    1536KiB time=00:00:07.26 bitrate=1733.2kbits/s speed=0.168x elapsed=0:00:43.12    \nframe=  368 fps=8.4 q=54.0 size=    1536KiB time=00:00:07.36 bitrate=1709.6kbits/s speed=0.169x elapsed=0:00:43.63    \nframe=  374 fps=8.5 q=53.0 size=    1536KiB time=00:00:07.48 bitrate=1682.2kbits/s speed=0.169x elapsed=0:00:44.18    \nframe=  378 fps=8.5 q=52.0 size=    1536KiB time=00:00:07.56 bitrate=1664.4kbits/s speed=0.169x elapsed=0:00:44.73    \nframe=  383 fps=8.5 q=54.0 size=    1536KiB time=00:00:07.66 bitrate=1642.7kbits/s speed=0.169x elapsed=0:00:45.23    \nframe=  388 fps=8.5 q=52.0 size=    2304KiB time=00:00:07.76 bitrate=2432.3kbits/s speed=0.17x elapsed=0:00:45.75    \nframe=  393 fps=8.5 q=52.0 size=    2304KiB time=00:00:07.86 bitrate=2401.3kbits/s speed=0.17x elapsed=0:00:46.26    \nframe=  397 fps=8.5 q=51.0 size=    2304KiB time=00:00:07.94 bitrate=2377.1kbits/s speed=0.17x elapsed=0:00:46.78    \nframe=  403 fps=8.5 q=52.0 size=    2304KiB time=00:00:08.06 bitrate=2341.7kbits/s speed=0.17x elapsed=0:00:47.29    \nframe=  407 fps=8.5 q=34.0 size=    2304KiB time=00:00:08.14 bitrate=2318.7kbits/s speed=0.17x elapsed=0:00:47.84    \nframe=  413 fps=8.5 q=52.0 size=    2304KiB time=00:00:08.26 bitrate=2285.0kbits/s speed=0.171x elapsed=0:00:48.39    \nframe=  417 fps=8.5 q=53.0 size=    2304KiB time=00:00:08.34 bitrate=2263.1kbits/s speed=0.17x elapsed=0:00:48.93    \nframe=  423 fps=8.6 q=52.0 size=    2304KiB time=00:00:08.44 bitrate=2236.3kbits/s speed=0.171x elapsed=0:00:49.45    \nframe=  427 fps=8.5 q=53.0 size=    2304KiB time=00:00:08.54 bitrate=2210.1kbits/s speed=0.171x elapsed=0:00:50.00    \nframe=  430 fps=8.5 q=53.0 size=    2304KiB time=00:00:08.60 bitrate=2194.7kbits/s speed=0.17x elapsed=0:00:50.56    \nframe=  434 fps=8.5 q=53.0 size=    2304KiB time=00:00:08.68 bitrate=2174.5kbits/s speed=0.17x elapsed=0:00:51.10    \nframe=  438 fps=8.5 q=54.0 size=    2304KiB time=00:00:08.76 bitrate=2154.6kbits/s speed=0.169x elapsed=0:00:51.71    \nframe=  441 fps=8.4 q=54.0 size=    2304KiB time=00:00:08.82 bitrate=2140.0kbits/s speed=0.169x elapsed=0:00:52.27    \nframe=  446 fps=8.4 q=52.0 size=    2304KiB time=00:00:08.92 bitrate=2116.0kbits/s speed=0.169x elapsed=0:00:52.83    \nframe=  450 fps=8.4 q=51.0 size=    2304KiB time=00:00:09.00 bitrate=2097.2kbits/s speed=0.168x elapsed=0:00:53.43    \nframe=  454 fps=8.4 q=51.0 size=    2304KiB time=00:00:09.08 bitrate=2078.7kbits/s speed=0.168x elapsed=0:00:54.03    \nframe=  458 fps=8.4 q=53.0 size=    2304KiB time=00:00:09.16 bitrate=2060.5kbits/s speed=0.168x elapsed=0:00:54.57    \nframe=  461 fps=8.4 q=53.0 size=    2304KiB time=00:00:09.22 bitrate=2047.1kbits/s speed=0.167x elapsed=0:00:55.10    \nframe=  466 fps=8.4 q=53.0 size=    2304KiB time=00:00:09.30 bitrate=2029.5kbits/s speed=0.167x elapsed=0:00:55.70    \nframe=  470 fps=8.4 q=53.0 size=    2304KiB time=00:00:09.40 bitrate=2007.9kbits/s speed=0.167x elapsed=0:00:56.24    \nframe=  472 fps=8.3 q=53.0 size=    2304KiB time=00:00:09.44 bitrate=1999.4kbits/s speed=0.166x elapsed=0:00:56.76    \nframe=  476 fps=8.3 q=51.0 size=    2304KiB time=00:00:09.52 bitrate=1982.6kbits/s speed=0.166x elapsed=0:00:57.28    \nframe=  476 fps=8.2 q=51.0 size=    2304KiB time=00:00:09.52 bitrate=1982.6kbits/s speed=0.164x elapsed=0:00:57.88    \nframe=  476 fps=8.1 q=51.0 size=    2304KiB time=00:00:09.52 bitrate=1982.6kbits/s speed=0.163x elapsed=0:00:58.47    \nframe=  476 fps=8.1 q=51.0 size=    2304KiB time=00:00:09.52 bitrate=1982.6kbits/s speed=0.161x elapsed=0:00:59.00    \nframe=  476 fps=8.0 q=51.0 size=    2304KiB time=00:00:09.52 bitrate=1982.6kbits/s speed=0.16x elapsed=0:00:59.58    \nframe=  476 fps=7.9 q=51.0 size=    2304KiB time=00:00:09.52 bitrate=1982.6kbits/s speed=0.158x elapsed=0:01:00.13    \n[out#0/webm @ 0000015cf5d09b00] video:3309KiB audio:0KiB subtitle:0KiB other streams:0KiB global headers:0KiB muxing overhead: 0.122477%\nframe=  500 fps=8.3 q=51.0 Lsize=    3313KiB time=00:00:10.00 bitrate=2714.0kbits/s speed=0.166x elapsed=0:01:00.41    \n",
  "seconds": 60.555952072143555,
  "probe_out": {}
}